# xmcd CD database file
#
# Track frame offsets:
#	183
#	18288
#	37103
#	56293
#	73283
#	89783
#	108658
#	165420
#	182483
#	199393
#	213270
#	234270
#	255830
#
# Disc length: 3657 seconds
#
# Revision: 0
# Processed by: cddbd v1.5PL3 Copyright (c) Steve Scherf et al.
# Submitted via: CDex 1.51
#
DISCID=af0e470d
DTITLE=Bo Diddley - Road Runner - His Greatest Hits Live
DYEAR=1900
DGENRE=Blues
TTITLE0=Bo Diddley
TTITLE1=I'm A Man
TTITLE2=You All Green
TTITLE3=Mona
TTITLE4=You Can't Judge A Book By It's Cover
TTITLE5=Tonight Is Yours
TTITLE6=Hey Bo Diddley
TTITLE7=Road Runner
TTITLE8=Say Bossman
TTITLE9=Bring It To Jerome
TTITLE10=Somebody Beat Me
TTITLE11=I'm Sorry
TTITLE12=Little Girl
EXTD=
EXTT0=
EXTT1=
EXTT2=
EXTT3=
EXTT4=
EXTT5=
EXTT6=
EXTT7=
EXTT8=
EXTT9=
EXTT10=
EXTT11=
EXTT12=
PLAYORDER=
